<svg width="940" height="237" viewBox="0 0 940 237" fill="none" xmlns="http://www.w3.org/2000/svg">
<rect x="0.5" y="0.5" width="938.07" height="235.73" rx="4.5" fill="#D1D5DB"/>
<rect x="0.5" y="0.5" width="938.07" height="235.73" rx="4.5" stroke="#9747FF" stroke-dasharray="10 5"/>
<path d="M241.395 174.97L220.715 144.8C219.515 143.04 217.525 142 215.405 142C214.345 142 213.315 142.26 212.405 142.74C211.495 143.22 210.705 143.92 210.095 144.8L202.875 155.33L198.205 148.52L195.655 144.8C194.455 143.05 192.465 142 190.345 142C188.225 142 186.225 143.05 185.025 144.8L164.355 174.97C164.105 175.34 163.885 175.72 163.705 176.12C162.765 178.17 162.765 180.56 163.705 182.61C163.885 183.01 164.105 183.39 164.355 183.76L185.025 213.93C186.225 215.69 188.215 216.73 190.345 216.73C191.405 216.73 192.435 216.47 193.345 215.99C194.255 215.51 195.045 214.81 195.655 213.93L202.875 203.39L205.185 206.77L210.095 213.93C211.295 215.69 213.285 216.73 215.405 216.73C216.475 216.73 217.495 216.47 218.415 215.99C219.325 215.51 220.125 214.81 220.725 213.93L241.395 183.76C243.195 181.13 243.195 177.59 241.395 174.96V174.97ZM190.335 148.53L198.935 161.08L190.425 173.5C189.295 175.15 187.425 176.13 185.425 176.13H171.425L190.335 148.53ZM190.335 210.21L171.425 182.62H185.425C187.425 182.62 189.295 183.61 190.425 185.25L192.665 188.51L198.935 197.66L190.335 210.21ZM202.875 191.91L194.265 179.37L202.865 166.82L211.465 179.37L202.875 191.91ZM215.405 210.21L206.815 197.66L215.315 185.25C216.445 183.6 218.315 182.62 220.315 182.62H234.315L215.405 210.21ZM220.305 176.12C218.315 176.12 216.445 175.13 215.315 173.49L207.375 161.91L206.805 161.07L215.405 148.52L234.315 176.12H220.305Z" fill="url(#paint0_linear_5_3369)"/>
<path d="M202.865 155.33L198.935 161.07L190.335 148.52L171.425 176.12H163.695C163.875 175.72 164.095 175.34 164.345 174.97L185.015 144.8C186.215 143.05 188.205 142 190.335 142C192.465 142 194.445 143.05 195.645 144.8L198.195 148.52L202.865 155.33Z" fill="url(#paint1_linear_5_3369)"/>
<path d="M202.865 166.82L206.805 161.07L215.315 173.49L211.465 179.37L202.865 166.82Z" fill="url(#paint2_linear_5_3369)"/>
<path d="M202.865 203.4L206.805 197.66L215.395 210.21L234.305 182.61H242.035C241.855 183.01 241.635 183.39 241.385 183.76L220.715 213.93C219.515 215.68 217.525 216.73 215.395 216.73C213.265 216.73 211.285 215.68 210.085 213.93L207.535 210.21L202.865 203.4Z" fill="url(#paint3_linear_5_3369)"/>
<path d="M202.865 191.91L198.935 197.66L190.425 185.24L194.265 179.36L202.865 191.91Z" fill="url(#paint4_linear_5_3369)"/>
<path d="M265.605 153.2L276.625 194.24L288.155 153.28H296.215L307.375 194.24L318.535 153.28H327.185L312.395 205.04H302.415L291.845 166.96L281.495 205.04H271.515L256.725 153.28L265.595 153.21L265.605 153.2Z" fill="white"/>
<path d="M338.945 167.17V205.03H330.955V167.17H338.945Z" fill="white"/>
<path d="M338.945 153.2V163.32H330.955V153.2H338.945Z" fill="white"/>
<path d="M354.155 197.37C355.855 198.63 358.065 199.26 360.775 199.26C363.195 199.26 365.145 198.8 366.655 197.89C368.155 196.98 368.915 195.76 368.915 194.23C368.915 192.95 368.565 191.99 367.875 191.35C367.185 190.71 366.265 190.25 365.105 189.98C363.945 189.71 362.155 189.43 359.745 189.13C356.445 188.74 353.715 188.21 351.575 187.54C349.435 186.87 347.705 185.81 346.395 184.36C345.085 182.91 344.435 180.95 344.435 178.48C344.435 176.16 345.085 174.11 346.395 172.31C347.705 170.51 349.495 169.12 351.795 168.13C354.085 167.14 356.685 166.65 359.595 166.65C364.375 166.65 368.255 167.71 371.245 169.83C374.235 171.95 375.845 174.93 376.085 178.78H368.325C368.125 177.05 367.265 175.64 365.735 174.53C364.205 173.42 362.285 172.87 359.965 172.87C357.645 172.87 355.775 173.31 354.345 174.2C352.915 175.09 352.205 176.29 352.205 177.82C352.205 178.95 352.565 179.8 353.275 180.37C353.985 180.94 354.885 181.33 355.975 181.55C357.055 181.77 358.805 182.03 361.225 182.33C364.475 182.68 367.215 183.2 369.435 183.92C371.655 184.64 373.425 185.77 374.755 187.32C376.085 188.87 376.755 190.98 376.755 193.64C376.755 196.01 376.065 198.09 374.685 199.89C373.305 201.69 371.405 203.07 368.995 204.03C366.575 204.99 363.865 205.47 360.865 205.47C355.785 205.47 351.685 204.32 348.555 202.03C345.425 199.74 343.815 196.57 343.715 192.53H351.405C351.555 194.5 352.475 196.12 354.175 197.37H354.155Z" fill="white"/>
<path d="M388.565 169.13C391.345 167.53 394.545 166.73 398.135 166.73C401.725 166.73 404.995 167.47 407.785 168.95C410.565 170.43 412.765 172.52 414.365 175.23C415.965 177.94 416.795 181.12 416.845 184.77C416.845 185.76 416.775 186.77 416.625 187.8H388.085V188.24C388.285 191.54 389.315 194.16 391.195 196.08C393.065 198 395.555 198.96 398.665 198.96C401.125 198.96 403.195 198.38 404.875 197.22C406.555 196.06 407.655 194.42 408.205 192.3H416.195C415.505 196.14 413.645 199.3 410.615 201.76C407.585 204.22 403.795 205.46 399.265 205.46C395.325 205.46 391.885 204.66 388.955 203.06C386.025 201.46 383.755 199.2 382.155 196.29C380.555 193.38 379.755 190.01 379.755 186.16C379.755 182.31 380.535 178.85 382.085 175.92C383.635 172.99 385.805 170.72 388.595 169.12L388.565 169.13ZM405.425 175.49C403.575 173.94 401.245 173.16 398.435 173.16C395.825 173.16 393.565 173.96 391.665 175.56C389.765 177.16 388.675 179.29 388.375 181.96H408.705C408.355 179.2 407.265 177.04 405.415 175.49H405.425Z" fill="white"/>
<path d="M465.485 196.26C463.885 193.33 463.085 189.94 463.085 186.09C463.085 182.24 463.885 178.93 465.485 176C467.085 173.07 469.355 170.79 472.285 169.16C475.215 167.53 478.585 166.72 482.375 166.72C486.165 166.72 489.535 167.53 492.465 169.16C495.395 170.79 497.665 173.07 499.265 176C500.865 178.93 501.665 182.3 501.665 186.09C501.665 189.88 500.865 193.32 499.265 196.26C497.665 199.19 495.395 201.46 492.465 203.06C489.535 204.66 486.165 205.46 482.375 205.46C478.585 205.46 475.215 204.66 472.285 203.06C469.355 201.46 467.085 199.19 465.485 196.26ZM493.545 186.1C493.545 182.4 492.525 179.38 490.475 177.04C488.425 174.7 485.735 173.53 482.375 173.53C479.015 173.53 476.335 174.7 474.315 177.04C472.295 179.38 471.285 182.4 471.285 186.1C471.285 189.8 472.295 192.82 474.315 195.16C476.335 197.5 479.025 198.67 482.375 198.67C485.725 198.67 488.425 197.5 490.475 195.16C492.515 192.82 493.545 189.8 493.545 186.1Z" fill="white"/>
<path d="M457.595 175.75C456.065 172.84 453.945 170.61 451.235 169.06C448.525 167.51 445.445 166.73 441.995 166.73C439.385 166.73 437.055 167.26 434.995 168.3C433.775 168.92 432.985 170.15 432.985 171.52V176.7C434.965 174.6 437.525 173.54 440.665 173.54C443.965 173.54 446.645 174.71 448.685 177.05C450.725 179.39 451.755 182.41 451.755 186.11C451.755 189.81 450.735 192.9 448.685 195.24C446.635 197.58 443.965 198.75 440.665 198.75C437.365 198.75 434.705 197.57 432.675 195.2C430.655 192.83 429.645 189.78 429.645 186.03C429.645 185.48 429.675 184.95 429.715 184.43V153.27H421.725V205.03H429.635V199.56C430.915 201.38 432.595 202.83 434.665 203.89C436.735 204.95 439.175 205.48 441.985 205.48C445.435 205.48 448.515 204.67 451.225 203.04C453.935 201.41 456.055 199.13 457.585 196.2C459.115 193.27 459.875 189.9 459.875 186.11C459.875 182.12 459.115 178.67 457.585 175.76L457.595 175.75Z" fill="white"/>
<path d="M510.915 167.17H501.605L514.985 185.65L500.785 205.03H509.435L519.495 191.27L529.475 205.03H538.795L510.915 167.17Z" fill="white"/>
<path d="M526.655 182.73L537.985 167.17H529.255L523.715 174.84C522.865 176.01 522.875 177.59 523.735 178.76L526.655 182.73Z" fill="url(#paint5_linear_5_3369)"/>
<path d="M645.88 153.2L656.9 194.24L668.43 153.28H676.49L687.65 194.24L698.81 153.28H707.46L692.67 205.04H682.69L672.12 166.96L661.77 205.04H651.79L637 153.28L645.87 153.21L645.88 153.2Z" fill="white"/>
<path d="M719.22 167.17V205.03H711.23V167.17H719.22Z" fill="white"/>
<path d="M734.43 197.37C736.13 198.63 738.34 199.26 741.05 199.26C743.47 199.26 745.42 198.8 746.93 197.89C748.43 196.98 749.19 195.76 749.19 194.23C749.19 192.95 748.84 191.99 748.15 191.35C747.46 190.71 746.54 190.25 745.38 189.98C744.22 189.71 742.43 189.43 740.02 189.13C736.72 188.74 733.99 188.21 731.85 187.54C729.71 186.87 727.98 185.81 726.67 184.36C725.36 182.91 724.71 180.95 724.71 178.48C724.71 176.16 725.36 174.11 726.67 172.31C727.98 170.51 729.77 169.12 732.07 168.13C734.36 167.14 736.96 166.65 739.87 166.65C744.65 166.65 748.53 167.71 751.52 169.83C754.51 171.95 756.12 174.93 756.36 178.78H748.6C748.4 177.05 747.54 175.64 746.01 174.53C744.48 173.42 742.56 172.87 740.24 172.87C737.92 172.87 736.05 173.31 734.62 174.2C733.19 175.09 732.48 176.29 732.48 177.82C732.48 178.95 732.84 179.8 733.55 180.37C734.26 180.94 735.16 181.33 736.25 181.55C737.33 181.77 739.08 182.03 741.5 182.33C744.75 182.68 747.49 183.2 749.71 183.92C751.93 184.64 753.7 185.77 755.03 187.32C756.36 188.87 757.03 190.98 757.03 193.64C757.03 196.01 756.34 198.09 754.96 199.89C753.58 201.69 751.68 203.07 749.27 204.03C746.85 204.99 744.14 205.47 741.14 205.47C736.06 205.47 731.96 204.32 728.83 202.03C725.7 199.74 724.09 196.57 723.99 192.53H731.68C731.83 194.5 732.75 196.12 734.45 197.37H734.43Z" fill="white"/>
<path d="M768.84 169.13C771.62 167.53 774.82 166.73 778.41 166.73C782 166.73 785.27 167.47 788.06 168.95C790.84 170.43 793.04 172.52 794.64 175.23C796.24 177.94 797.07 181.12 797.12 184.77C797.12 185.76 797.05 186.77 796.9 187.8H768.36V188.24C768.56 191.54 769.59 194.16 771.47 196.08C773.34 198 775.83 198.96 778.94 198.96C781.4 198.96 783.47 198.38 785.15 197.22C786.83 196.06 787.93 194.42 788.48 192.3H796.47C795.78 196.14 793.92 199.3 790.89 201.76C787.86 204.22 784.07 205.46 779.54 205.46C775.6 205.46 772.16 204.66 769.23 203.06C766.3 201.46 764.03 199.2 762.43 196.29C760.83 193.38 760.03 190.01 760.03 186.16C760.03 182.31 760.81 178.85 762.36 175.92C763.91 172.99 766.08 170.72 768.87 169.12L768.84 169.13ZM785.7 175.49C783.85 173.94 781.52 173.16 778.71 173.16C776.1 173.16 773.84 173.96 771.94 175.56C770.04 177.16 768.95 179.29 768.65 181.96H788.98C788.63 179.2 787.54 177.04 785.69 175.49H785.7Z" fill="white"/>
<path d="M845.76 196.26C844.16 193.33 843.36 189.94 843.36 186.09C843.36 182.24 844.16 178.93 845.76 176C847.36 173.07 849.63 170.79 852.56 169.16C855.49 167.53 858.86 166.72 862.65 166.72C866.44 166.72 869.81 167.53 872.74 169.16C875.67 170.79 877.94 173.07 879.54 176C881.14 178.93 881.94 182.3 881.94 186.09C881.94 189.88 881.14 193.32 879.54 196.26C877.94 199.19 875.67 201.46 872.74 203.06C869.81 204.66 866.44 205.46 862.65 205.46C858.86 205.46 855.49 204.66 852.56 203.06C849.63 201.46 847.36 199.19 845.76 196.26ZM873.82 186.1C873.82 182.4 872.8 179.38 870.75 177.04C868.7 174.7 866.01 173.53 862.65 173.53C859.29 173.53 856.61 174.7 854.59 177.04C852.57 179.38 851.56 182.4 851.56 186.1C851.56 189.8 852.57 192.82 854.59 195.16C856.61 197.5 859.3 198.67 862.65 198.67C866 198.67 868.7 197.5 870.75 195.16C872.79 192.82 873.82 189.8 873.82 186.1Z" fill="white"/>
<path d="M837.87 175.75C836.34 172.84 834.22 170.61 831.51 169.06C828.8 167.51 825.72 166.73 822.27 166.73C819.66 166.73 817.33 167.26 815.27 168.3C814.05 168.92 813.26 170.15 813.26 171.52V176.7C815.24 174.6 817.8 173.54 820.94 173.54C824.24 173.54 826.92 174.71 828.96 177.05C831 179.39 832.03 182.41 832.03 186.11C832.03 189.81 831.01 192.9 828.96 195.24C826.91 197.58 824.24 198.75 820.94 198.75C817.64 198.75 814.98 197.57 812.95 195.2C810.93 192.83 809.92 189.78 809.92 186.03C809.92 185.48 809.95 184.95 809.99 184.43V153.27H802V205.03H809.91V199.56C811.19 201.38 812.87 202.83 814.94 203.89C817.01 204.95 819.45 205.48 822.26 205.48C825.71 205.48 828.79 204.67 831.5 203.04C834.21 201.41 836.33 199.13 837.86 196.2C839.39 193.27 840.15 189.9 840.15 186.11C840.15 182.12 839.39 178.67 837.86 175.76L837.87 175.75Z" fill="white"/>
<path d="M891.19 167.17H881.88L895.26 185.65L881.06 205.03H889.71L899.77 191.27L909.75 205.03H919.07L891.19 167.17Z" fill="white"/>
<path d="M906.93 182.73L918.26 167.17H909.53L903.99 174.84C903.14 176.01 903.15 177.59 904.01 178.76L906.93 182.73Z" fill="url(#paint6_linear_5_3369)"/>
<path d="M718.99 153V163.12H711V153H718.99Z" fill="white"/>
<path d="M98.395 174.97L77.715 144.8C76.515 143.04 74.525 142 72.405 142C71.345 142 70.315 142.26 69.405 142.74C68.495 143.22 67.705 143.92 67.095 144.8L59.875 155.33L55.205 148.52L52.655 144.8C51.455 143.05 49.465 142 47.345 142C45.225 142 43.225 143.05 42.025 144.8L21.355 174.97C21.105 175.34 20.885 175.72 20.705 176.12C19.765 178.17 19.765 180.56 20.705 182.61C20.885 183.01 21.105 183.39 21.355 183.76L42.025 213.93C43.225 215.69 45.215 216.73 47.345 216.73C48.405 216.73 49.435 216.47 50.345 215.99C51.255 215.51 52.045 214.81 52.655 213.93L59.875 203.39L62.185 206.77L67.095 213.93C68.295 215.69 70.285 216.73 72.405 216.73C73.475 216.73 74.495 216.47 75.415 215.99C76.325 215.51 77.125 214.81 77.725 213.93L98.395 183.76C100.195 181.13 100.195 177.59 98.395 174.96V174.97ZM47.335 148.53L55.935 161.08L47.425 173.5C46.295 175.15 44.425 176.13 42.425 176.13H28.425L47.335 148.53ZM47.335 210.21L28.425 182.62H42.425C44.425 182.62 46.295 183.61 47.425 185.25L49.665 188.51L55.935 197.66L47.335 210.21ZM59.875 191.91L51.265 179.37L59.865 166.82L68.465 179.37L59.875 191.91ZM72.405 210.21L63.815 197.66L72.315 185.25C73.445 183.6 75.315 182.62 77.315 182.62H91.315L72.405 210.21ZM77.305 176.12C75.315 176.12 73.445 175.13 72.315 173.49L64.375 161.91L63.805 161.07L72.405 148.52L91.315 176.12H77.305Z" fill="url(#paint7_linear_5_3369)"/>
<path d="M59.8648 155.33L55.9348 161.07L47.3348 148.52L28.4248 176.12H20.6948C20.8748 175.72 21.0948 175.34 21.3448 174.97L42.0148 144.8C43.2148 143.05 45.2048 142 47.3348 142C49.4648 142 51.4448 143.05 52.6448 144.8L55.1948 148.52L59.8648 155.33Z" fill="url(#paint8_linear_5_3369)"/>
<path d="M59.8652 166.82L63.8052 161.07L72.3152 173.49L68.4652 179.37L59.8652 166.82Z" fill="url(#paint9_linear_5_3369)"/>
<path d="M59.8652 203.4L63.8052 197.66L72.3952 210.21L91.3052 182.61H99.0352C98.8552 183.01 98.6352 183.39 98.3852 183.76L77.7152 213.93C76.5152 215.68 74.5252 216.73 72.3952 216.73C70.2652 216.73 68.2852 215.68 67.0852 213.93L64.5352 210.21L59.8652 203.4Z" fill="url(#paint10_linear_5_3369)"/>
<path d="M59.8648 191.91L55.9348 197.66L47.4248 185.24L51.2648 179.36L59.8648 191.91Z" fill="url(#paint11_linear_5_3369)"/>
<path d="M232.395 52.97L211.715 22.8C210.515 21.04 208.525 20 206.405 20C205.345 20 204.315 20.26 203.405 20.74C202.495 21.22 201.705 21.92 201.095 22.8L193.875 33.33L189.205 26.52L186.655 22.8C185.455 21.05 183.465 20 181.345 20C179.225 20 177.225 21.05 176.025 22.8L155.355 52.97C155.105 53.34 154.885 53.72 154.705 54.12C153.765 56.17 153.765 58.56 154.705 60.61C154.885 61.01 155.105 61.39 155.355 61.76L176.025 91.93C177.225 93.69 179.215 94.73 181.345 94.73C182.405 94.73 183.435 94.47 184.345 93.99C185.255 93.51 186.045 92.81 186.655 91.93L193.875 81.39L196.185 84.77L201.095 91.93C202.295 93.69 204.285 94.73 206.405 94.73C207.475 94.73 208.495 94.47 209.415 93.99C210.325 93.51 211.125 92.81 211.725 91.93L232.395 61.76C234.195 59.13 234.195 55.59 232.395 52.96V52.97ZM181.335 26.53L189.935 39.08L181.425 51.5C180.295 53.15 178.425 54.13 176.425 54.13H162.425L181.335 26.53ZM181.335 88.21L162.425 60.62H176.425C178.425 60.62 180.295 61.61 181.425 63.25L183.665 66.51L189.935 75.66L181.335 88.21ZM193.875 69.91L185.265 57.37L193.865 44.82L202.465 57.37L193.875 69.91ZM206.405 88.21L197.815 75.66L206.315 63.25C207.445 61.6 209.315 60.62 211.315 60.62H225.315L206.405 88.21ZM211.305 54.12C209.315 54.12 207.445 53.13 206.315 51.49L198.375 39.91L197.805 39.07L206.405 26.52L225.315 54.12H211.305Z" fill="url(#paint12_linear_5_3369)"/>
<path d="M193.865 33.33L189.935 39.07L181.335 26.52L162.425 54.12H154.695C154.875 53.72 155.095 53.34 155.345 52.97L176.015 22.8C177.215 21.05 179.205 20 181.335 20C183.465 20 185.445 21.05 186.645 22.8L189.195 26.52L193.865 33.33Z" fill="url(#paint13_linear_5_3369)"/>
<path d="M193.865 44.8201L197.805 39.0701L206.315 51.4901L202.465 57.3701L193.865 44.8201Z" fill="url(#paint14_linear_5_3369)"/>
<path d="M193.865 81.4L197.805 75.66L206.395 88.21L225.305 60.61H233.035C232.855 61.01 232.635 61.39 232.385 61.76L211.715 91.93C210.515 93.68 208.525 94.73 206.395 94.73C204.265 94.73 202.285 93.68 201.085 91.93L198.535 88.21L193.865 81.4Z" fill="url(#paint15_linear_5_3369)"/>
<path d="M193.865 69.91L189.935 75.66L181.425 63.24L185.265 57.36L193.865 69.91Z" fill="url(#paint16_linear_5_3369)"/>
<path d="M256.605 31.2L267.625 72.24L279.155 31.28H287.215L298.375 72.24L309.535 31.28H318.185L303.395 83.04H293.415L282.845 44.96L272.495 83.04H262.515L247.725 31.28L256.595 31.21L256.605 31.2Z" fill="#002B5E"/>
<path d="M329.945 45.1699V83.0299H321.955V45.1699H329.945Z" fill="#002B5E"/>
<path d="M329.945 31.2V41.32H321.955V31.2H329.945Z" fill="#002B5E"/>
<path d="M345.155 75.3699C346.855 76.6299 349.065 77.2599 351.775 77.2599C354.195 77.2599 356.145 76.7999 357.655 75.8899C359.155 74.9799 359.915 73.7599 359.915 72.2299C359.915 70.9499 359.565 69.9899 358.875 69.3499C358.185 68.7099 357.265 68.2499 356.105 67.9799C354.945 67.7099 353.155 67.4299 350.745 67.1299C347.445 66.7399 344.715 66.2099 342.575 65.5399C340.435 64.8699 338.705 63.8099 337.395 62.3599C336.085 60.9099 335.435 58.9499 335.435 56.4799C335.435 54.1599 336.085 52.1099 337.395 50.3099C338.705 48.5099 340.495 47.1199 342.795 46.1299C345.085 45.1399 347.685 44.6499 350.595 44.6499C355.375 44.6499 359.255 45.7099 362.245 47.8299C365.235 49.9499 366.845 52.9299 367.085 56.7799H359.325C359.125 55.0499 358.265 53.6399 356.735 52.5299C355.205 51.4199 353.285 50.8699 350.965 50.8699C348.645 50.8699 346.775 51.3099 345.345 52.1999C343.915 53.0899 343.205 54.2899 343.205 55.8199C343.205 56.9499 343.565 57.7999 344.275 58.3699C344.985 58.9399 345.885 59.3299 346.975 59.5499C348.055 59.7699 349.805 60.0299 352.225 60.3299C355.475 60.6799 358.215 61.1999 360.435 61.9199C362.655 62.6399 364.425 63.7699 365.755 65.3199C367.085 66.8699 367.755 68.9799 367.755 71.6399C367.755 74.0099 367.065 76.0899 365.685 77.8899C364.305 79.6899 362.405 81.0699 359.995 82.0299C357.575 82.9899 354.865 83.4699 351.865 83.4699C346.785 83.4699 342.685 82.3199 339.555 80.0299C336.425 77.7399 334.815 74.5699 334.715 70.5299H342.405C342.555 72.4999 343.475 74.1199 345.175 75.3699H345.155Z" fill="#002B5E"/>
<path d="M379.565 47.13C382.345 45.53 385.545 44.73 389.135 44.73C392.725 44.73 395.995 45.47 398.785 46.95C401.565 48.43 403.765 50.52 405.365 53.23C406.965 55.94 407.795 59.12 407.845 62.77C407.845 63.76 407.775 64.77 407.625 65.8H379.085V66.24C379.285 69.54 380.315 72.16 382.195 74.08C384.065 76 386.555 76.96 389.665 76.96C392.125 76.96 394.195 76.38 395.875 75.22C397.555 74.06 398.655 72.42 399.205 70.3H407.195C406.505 74.14 404.645 77.3 401.615 79.76C398.585 82.22 394.795 83.46 390.265 83.46C386.325 83.46 382.885 82.66 379.955 81.06C377.025 79.46 374.755 77.2 373.155 74.29C371.555 71.38 370.755 68.01 370.755 64.16C370.755 60.31 371.535 56.85 373.085 53.92C374.635 50.99 376.805 48.72 379.595 47.12L379.565 47.13ZM396.425 53.49C394.575 51.94 392.245 51.16 389.435 51.16C386.825 51.16 384.565 51.96 382.665 53.56C380.765 55.16 379.675 57.29 379.375 59.96H399.705C399.355 57.2 398.265 55.04 396.415 53.49H396.425Z" fill="#002B5E"/>
<path d="M456.485 74.26C454.885 71.33 454.085 67.94 454.085 64.09C454.085 60.24 454.885 56.93 456.485 54C458.085 51.07 460.355 48.79 463.285 47.16C466.215 45.53 469.585 44.72 473.375 44.72C477.165 44.72 480.535 45.53 483.465 47.16C486.395 48.79 488.665 51.07 490.265 54C491.865 56.93 492.665 60.3 492.665 64.09C492.665 67.88 491.865 71.32 490.265 74.26C488.665 77.19 486.395 79.46 483.465 81.06C480.535 82.66 477.165 83.46 473.375 83.46C469.585 83.46 466.215 82.66 463.285 81.06C460.355 79.46 458.085 77.19 456.485 74.26ZM484.545 64.1C484.545 60.4 483.525 57.38 481.475 55.04C479.425 52.7 476.735 51.53 473.375 51.53C470.015 51.53 467.335 52.7 465.315 55.04C463.295 57.38 462.285 60.4 462.285 64.1C462.285 67.8 463.295 70.82 465.315 73.16C467.335 75.5 470.025 76.67 473.375 76.67C476.725 76.67 479.425 75.5 481.475 73.16C483.515 70.82 484.545 67.8 484.545 64.1Z" fill="#002B5E"/>
<path d="M448.595 53.75C447.065 50.84 444.945 48.61 442.235 47.06C439.525 45.51 436.445 44.73 432.995 44.73C430.385 44.73 428.055 45.26 425.995 46.3C424.775 46.92 423.985 48.15 423.985 49.52V54.7C425.965 52.6 428.525 51.54 431.665 51.54C434.965 51.54 437.645 52.71 439.685 55.05C441.735 57.39 442.755 60.41 442.755 64.11C442.755 67.81 441.735 70.9 439.685 73.24C437.635 75.58 434.965 76.75 431.665 76.75C428.365 76.75 425.705 75.57 423.675 73.2C421.655 70.83 420.645 67.78 420.645 64.03C420.645 63.48 420.675 62.95 420.715 62.43V31.27H412.725V83.03H420.635V77.56C421.915 79.38 423.595 80.83 425.665 81.89C427.735 82.95 430.175 83.48 432.985 83.48C436.435 83.48 439.515 82.67 442.225 81.04C444.935 79.41 447.055 77.13 448.585 74.2C450.115 71.27 450.875 67.9 450.875 64.11C450.875 60.12 450.115 56.67 448.585 53.76L448.595 53.75Z" fill="#002B5E"/>
<path d="M501.915 45.1699H492.605L505.985 63.6499L491.785 83.0299H500.435L510.495 69.2699L520.475 83.0299H529.795L501.915 45.1699Z" fill="#002B5E"/>
<path d="M517.655 60.7299L528.985 45.1699H520.255L514.715 52.8399C513.865 54.0099 513.875 55.5899 514.735 56.7599L517.655 60.7299Z" fill="url(#paint17_linear_5_3369)"/>
<path d="M645.88 31.2L656.9 72.24L668.43 31.28H676.49L687.65 72.24L698.81 31.28H707.46L692.67 83.04H682.69L672.12 44.96L661.77 83.04H651.79L637 31.28L645.87 31.21L645.88 31.2Z" fill="#002B5E"/>
<path d="M719.22 45.1699V83.0299H711.23V45.1699H719.22Z" fill="#002B5E"/>
<path d="M719.22 31.2V41.32H711.23V31.2H719.22Z" fill="#002B5E"/>
<path d="M734.43 75.3699C736.13 76.6299 738.34 77.2599 741.05 77.2599C743.47 77.2599 745.42 76.7999 746.93 75.8899C748.43 74.9799 749.19 73.7599 749.19 72.2299C749.19 70.9499 748.84 69.9899 748.15 69.3499C747.46 68.7099 746.54 68.2499 745.38 67.9799C744.22 67.7099 742.43 67.4299 740.02 67.1299C736.72 66.7399 733.99 66.2099 731.85 65.5399C729.71 64.8699 727.98 63.8099 726.67 62.3599C725.36 60.9099 724.71 58.9499 724.71 56.4799C724.71 54.1599 725.36 52.1099 726.67 50.3099C727.98 48.5099 729.77 47.1199 732.07 46.1299C734.36 45.1399 736.96 44.6499 739.87 44.6499C744.65 44.6499 748.53 45.7099 751.52 47.8299C754.51 49.9499 756.12 52.9299 756.36 56.7799H748.6C748.4 55.0499 747.54 53.6399 746.01 52.5299C744.48 51.4199 742.56 50.8699 740.24 50.8699C737.92 50.8699 736.05 51.3099 734.62 52.1999C733.19 53.0899 732.48 54.2899 732.48 55.8199C732.48 56.9499 732.84 57.7999 733.55 58.3699C734.26 58.9399 735.16 59.3299 736.25 59.5499C737.33 59.7699 739.08 60.0299 741.5 60.3299C744.75 60.6799 747.49 61.1999 749.71 61.9199C751.93 62.6399 753.7 63.7699 755.03 65.3199C756.36 66.8699 757.03 68.9799 757.03 71.6399C757.03 74.0099 756.34 76.0899 754.96 77.8899C753.58 79.6899 751.68 81.0699 749.27 82.0299C746.85 82.9899 744.14 83.4699 741.14 83.4699C736.06 83.4699 731.96 82.3199 728.83 80.0299C725.7 77.7399 724.09 74.5699 723.99 70.5299H731.68C731.83 72.4999 732.75 74.1199 734.45 75.3699H734.43Z" fill="#002B5E"/>
<path d="M768.84 47.13C771.62 45.53 774.82 44.73 778.41 44.73C782 44.73 785.27 45.47 788.06 46.95C790.84 48.43 793.04 50.52 794.64 53.23C796.24 55.94 797.07 59.12 797.12 62.77C797.12 63.76 797.05 64.77 796.9 65.8H768.36V66.24C768.56 69.54 769.59 72.16 771.47 74.08C773.34 76 775.83 76.96 778.94 76.96C781.4 76.96 783.47 76.38 785.15 75.22C786.83 74.06 787.93 72.42 788.48 70.3H796.47C795.78 74.14 793.92 77.3 790.89 79.76C787.86 82.22 784.07 83.46 779.54 83.46C775.6 83.46 772.16 82.66 769.23 81.06C766.3 79.46 764.03 77.2 762.43 74.29C760.83 71.38 760.03 68.01 760.03 64.16C760.03 60.31 760.81 56.85 762.36 53.92C763.91 50.99 766.08 48.72 768.87 47.12L768.84 47.13ZM785.7 53.49C783.85 51.94 781.52 51.16 778.71 51.16C776.1 51.16 773.84 51.96 771.94 53.56C770.04 55.16 768.95 57.29 768.65 59.96H788.98C788.63 57.2 787.54 55.04 785.69 53.49H785.7Z" fill="#002B5E"/>
<path d="M845.76 74.26C844.16 71.33 843.36 67.94 843.36 64.09C843.36 60.24 844.16 56.93 845.76 54C847.36 51.07 849.63 48.79 852.56 47.16C855.49 45.53 858.86 44.72 862.65 44.72C866.44 44.72 869.81 45.53 872.74 47.16C875.67 48.79 877.94 51.07 879.54 54C881.14 56.93 881.94 60.3 881.94 64.09C881.94 67.88 881.14 71.32 879.54 74.26C877.94 77.19 875.67 79.46 872.74 81.06C869.81 82.66 866.44 83.46 862.65 83.46C858.86 83.46 855.49 82.66 852.56 81.06C849.63 79.46 847.36 77.19 845.76 74.26ZM873.82 64.1C873.82 60.4 872.8 57.38 870.75 55.04C868.7 52.7 866.01 51.53 862.65 51.53C859.29 51.53 856.61 52.7 854.59 55.04C852.57 57.38 851.56 60.4 851.56 64.1C851.56 67.8 852.57 70.82 854.59 73.16C856.61 75.5 859.3 76.67 862.65 76.67C866 76.67 868.7 75.5 870.75 73.16C872.79 70.82 873.82 67.8 873.82 64.1Z" fill="#002B5E"/>
<path d="M837.87 53.75C836.34 50.84 834.22 48.61 831.51 47.06C828.8 45.51 825.72 44.73 822.27 44.73C819.66 44.73 817.33 45.26 815.27 46.3C814.05 46.92 813.26 48.15 813.26 49.52V54.7C815.24 52.6 817.8 51.54 820.94 51.54C824.24 51.54 826.92 52.71 828.96 55.05C831.01 57.39 832.03 60.41 832.03 64.11C832.03 67.81 831.01 70.9 828.96 73.24C826.91 75.58 824.24 76.75 820.94 76.75C817.64 76.75 814.98 75.57 812.95 73.2C810.93 70.83 809.92 67.78 809.92 64.03C809.92 63.48 809.95 62.95 809.99 62.43V31.27H802V83.03H809.91V77.56C811.19 79.38 812.87 80.83 814.94 81.89C817.01 82.95 819.45 83.48 822.26 83.48C825.71 83.48 828.79 82.67 831.5 81.04C834.21 79.41 836.33 77.13 837.86 74.2C839.39 71.27 840.15 67.9 840.15 64.11C840.15 60.12 839.39 56.67 837.86 53.76L837.87 53.75Z" fill="#002B5E"/>
<path d="M891.19 45.1699H881.88L895.26 63.6499L881.06 83.0299H889.71L899.77 69.2699L909.75 83.0299H919.07L891.19 45.1699Z" fill="#002B5E"/>
<path d="M906.93 60.7299L918.26 45.1699H909.53L903.99 52.8399C903.14 54.0099 903.15 55.5899 904.01 56.7599L906.93 60.7299Z" fill="url(#paint18_linear_5_3369)"/>
<path d="M101.395 52.97L80.715 22.8C79.515 21.04 77.525 20 75.405 20C74.345 20 73.315 20.26 72.405 20.74C71.495 21.22 70.705 21.92 70.095 22.8L62.875 33.33L58.205 26.52L55.655 22.8C54.455 21.05 52.465 20 50.345 20C48.225 20 46.225 21.05 45.025 22.8L24.355 52.97C24.105 53.34 23.885 53.72 23.705 54.12C22.765 56.17 22.765 58.56 23.705 60.61C23.885 61.01 24.105 61.39 24.355 61.76L45.025 91.93C46.225 93.69 48.215 94.73 50.345 94.73C51.405 94.73 52.435 94.47 53.345 93.99C54.255 93.51 55.045 92.81 55.655 91.93L62.875 81.39L65.185 84.77L70.095 91.93C71.295 93.69 73.285 94.73 75.405 94.73C76.475 94.73 77.495 94.47 78.415 93.99C79.325 93.51 80.125 92.81 80.725 91.93L101.395 61.76C103.195 59.13 103.195 55.59 101.395 52.96V52.97ZM50.335 26.53L58.935 39.08L50.425 51.5C49.295 53.15 47.425 54.13 45.425 54.13H31.425L50.335 26.53ZM50.335 88.21L31.425 60.62H45.425C47.425 60.62 49.295 61.61 50.425 63.25L52.665 66.51L58.935 75.66L50.335 88.21ZM62.875 69.91L54.265 57.37L62.865 44.82L71.465 57.37L62.875 69.91ZM75.405 88.21L66.815 75.66L75.315 63.25C76.445 61.6 78.315 60.62 80.315 60.62H94.315L75.405 88.21ZM80.305 54.12C78.315 54.12 76.445 53.13 75.315 51.49L67.375 39.91L66.805 39.07L75.405 26.52L94.315 54.12H80.305Z" fill="url(#paint19_linear_5_3369)"/>
<path d="M62.8648 33.33L58.9348 39.07L50.3348 26.52L31.4248 54.12H23.6948C23.8748 53.72 24.0948 53.34 24.3448 52.97L45.0148 22.8C46.2148 21.05 48.2048 20 50.3348 20C52.4648 20 54.4448 21.05 55.6448 22.8L58.1948 26.52L62.8648 33.33Z" fill="url(#paint20_linear_5_3369)"/>
<path d="M62.8652 44.8201L66.8052 39.0701L75.3152 51.4901L71.4652 57.3701L62.8652 44.8201Z" fill="url(#paint21_linear_5_3369)"/>
<path d="M62.8652 81.4L66.8052 75.66L75.3952 88.21L94.3052 60.61H102.035C101.855 61.01 101.635 61.39 101.385 61.76L80.7152 91.93C79.5152 93.68 77.5252 94.73 75.3952 94.73C73.2652 94.73 71.2852 93.68 70.0852 91.93L67.5352 88.21L62.8652 81.4Z" fill="url(#paint22_linear_5_3369)"/>
<path d="M62.8648 69.91L58.9348 75.66L50.4248 63.24L54.2648 57.36L62.8648 69.91Z" fill="url(#paint23_linear_5_3369)"/>
<defs>
<linearGradient id="paint0_linear_5_3369" x1="167.045" y1="143.55" x2="230.165" y2="206.67" gradientUnits="userSpaceOnUse">
<stop stop-color="#1C70EA"/>
<stop offset="0.25" stop-color="#2B93EC"/>
<stop offset="0.58" stop-color="#3DBCEF"/>
<stop offset="0.84" stop-color="#47D5F1"/>
<stop offset="1" stop-color="#4CDFF2"/>
</linearGradient>
<linearGradient id="paint1_linear_5_3369" x1="182.295" y1="163.01" x2="199.805" y2="180.51" gradientUnits="userSpaceOnUse">
<stop stop-color="#0096F3"/>
<stop offset="0.04" stop-color="#008AE2"/>
<stop offset="0.2" stop-color="#0061A9"/>
<stop offset="0.33" stop-color="#004380"/>
<stop offset="0.44" stop-color="#003167"/>
<stop offset="0.5" stop-color="#002B5E"/>
<stop offset="0.56" stop-color="#003265"/>
<stop offset="0.65" stop-color="#004678"/>
<stop offset="0.76" stop-color="#006799"/>
<stop offset="0.89" stop-color="#0094C6"/>
<stop offset="1" stop-color="#00C4F5"/>
</linearGradient>
<linearGradient id="paint2_linear_5_3369" x1="192.105" y1="153.2" x2="209.615" y2="170.7" gradientUnits="userSpaceOnUse">
<stop stop-color="#0096F3"/>
<stop offset="0.04" stop-color="#008AE2"/>
<stop offset="0.2" stop-color="#0061A9"/>
<stop offset="0.33" stop-color="#004380"/>
<stop offset="0.44" stop-color="#003167"/>
<stop offset="0.5" stop-color="#002B5E"/>
<stop offset="0.56" stop-color="#003265"/>
<stop offset="0.65" stop-color="#004678"/>
<stop offset="0.76" stop-color="#006799"/>
<stop offset="0.89" stop-color="#0094C6"/>
<stop offset="1" stop-color="#00C4F5"/>
</linearGradient>
<linearGradient id="paint3_linear_5_3369" x1="203.435" y1="175.72" x2="223.415" y2="195.7" gradientUnits="userSpaceOnUse">
<stop stop-color="#00B6F5"/>
<stop offset="0.05" stop-color="#00A4E2"/>
<stop offset="0.2" stop-color="#0070A9"/>
<stop offset="0.33" stop-color="#004A80"/>
<stop offset="0.44" stop-color="#003367"/>
<stop offset="0.5" stop-color="#002B5E"/>
<stop offset="0.56" stop-color="#003264"/>
<stop offset="0.64" stop-color="#004675"/>
<stop offset="0.74" stop-color="#006791"/>
<stop offset="0.85" stop-color="#0094B8"/>
<stop offset="0.97" stop-color="#00CEEA"/>
<stop offset="1" stop-color="#00DCF6"/>
</linearGradient>
<linearGradient id="paint4_linear_5_3369" x1="193.625" y1="185.53" x2="213.605" y2="205.51" gradientUnits="userSpaceOnUse">
<stop stop-color="#00B6F5"/>
<stop offset="0.05" stop-color="#00A4E2"/>
<stop offset="0.2" stop-color="#0070A9"/>
<stop offset="0.33" stop-color="#004A80"/>
<stop offset="0.44" stop-color="#003367"/>
<stop offset="0.5" stop-color="#002B5E"/>
<stop offset="0.56" stop-color="#003264"/>
<stop offset="0.64" stop-color="#004675"/>
<stop offset="0.74" stop-color="#006791"/>
<stop offset="0.85" stop-color="#0094B8"/>
<stop offset="0.97" stop-color="#00CEEA"/>
<stop offset="1" stop-color="#00DCF6"/>
</linearGradient>
<linearGradient id="paint5_linear_5_3369" x1="523.915" y1="180.64" x2="535.015" y2="165.21" gradientUnits="userSpaceOnUse">
<stop stop-color="#1C70EA"/>
<stop offset="0.25" stop-color="#2B93EC"/>
<stop offset="0.58" stop-color="#3DBCEF"/>
<stop offset="0.84" stop-color="#47D5F1"/>
<stop offset="1" stop-color="#4CDFF2"/>
</linearGradient>
<linearGradient id="paint6_linear_5_3369" x1="904.19" y1="180.64" x2="915.29" y2="165.21" gradientUnits="userSpaceOnUse">
<stop stop-color="#1C70EA"/>
<stop offset="0.25" stop-color="#2B93EC"/>
<stop offset="0.58" stop-color="#3DBCEF"/>
<stop offset="0.84" stop-color="#47D5F1"/>
<stop offset="1" stop-color="#4CDFF2"/>
</linearGradient>
<linearGradient id="paint7_linear_5_3369" x1="24.045" y1="143.55" x2="87.165" y2="206.67" gradientUnits="userSpaceOnUse">
<stop stop-color="#1C70EA"/>
<stop offset="0.25" stop-color="#2B93EC"/>
<stop offset="0.58" stop-color="#3DBCEF"/>
<stop offset="0.84" stop-color="#47D5F1"/>
<stop offset="1" stop-color="#4CDFF2"/>
</linearGradient>
<linearGradient id="paint8_linear_5_3369" x1="39.2948" y1="163.01" x2="56.8048" y2="180.51" gradientUnits="userSpaceOnUse">
<stop stop-color="#0096F3"/>
<stop offset="0.04" stop-color="#008AE2"/>
<stop offset="0.2" stop-color="#0061A9"/>
<stop offset="0.33" stop-color="#004380"/>
<stop offset="0.44" stop-color="#003167"/>
<stop offset="0.5" stop-color="#002B5E"/>
<stop offset="0.56" stop-color="#003265"/>
<stop offset="0.65" stop-color="#004678"/>
<stop offset="0.76" stop-color="#006799"/>
<stop offset="0.89" stop-color="#0094C6"/>
<stop offset="1" stop-color="#00C4F5"/>
</linearGradient>
<linearGradient id="paint9_linear_5_3369" x1="49.1053" y1="153.2" x2="66.6152" y2="170.7" gradientUnits="userSpaceOnUse">
<stop stop-color="#0096F3"/>
<stop offset="0.04" stop-color="#008AE2"/>
<stop offset="0.2" stop-color="#0061A9"/>
<stop offset="0.33" stop-color="#004380"/>
<stop offset="0.44" stop-color="#003167"/>
<stop offset="0.5" stop-color="#002B5E"/>
<stop offset="0.56" stop-color="#003265"/>
<stop offset="0.65" stop-color="#004678"/>
<stop offset="0.76" stop-color="#006799"/>
<stop offset="0.89" stop-color="#0094C6"/>
<stop offset="1" stop-color="#00C4F5"/>
</linearGradient>
<linearGradient id="paint10_linear_5_3369" x1="60.4352" y1="175.72" x2="80.4152" y2="195.7" gradientUnits="userSpaceOnUse">
<stop stop-color="#00B6F5"/>
<stop offset="0.05" stop-color="#00A4E2"/>
<stop offset="0.2" stop-color="#0070A9"/>
<stop offset="0.33" stop-color="#004A80"/>
<stop offset="0.44" stop-color="#003367"/>
<stop offset="0.5" stop-color="#002B5E"/>
<stop offset="0.56" stop-color="#003264"/>
<stop offset="0.64" stop-color="#004675"/>
<stop offset="0.74" stop-color="#006791"/>
<stop offset="0.85" stop-color="#0094B8"/>
<stop offset="0.97" stop-color="#00CEEA"/>
<stop offset="1" stop-color="#00DCF6"/>
</linearGradient>
<linearGradient id="paint11_linear_5_3369" x1="50.6248" y1="185.53" x2="70.6048" y2="205.51" gradientUnits="userSpaceOnUse">
<stop stop-color="#00B6F5"/>
<stop offset="0.05" stop-color="#00A4E2"/>
<stop offset="0.2" stop-color="#0070A9"/>
<stop offset="0.33" stop-color="#004A80"/>
<stop offset="0.44" stop-color="#003367"/>
<stop offset="0.5" stop-color="#002B5E"/>
<stop offset="0.56" stop-color="#003264"/>
<stop offset="0.64" stop-color="#004675"/>
<stop offset="0.74" stop-color="#006791"/>
<stop offset="0.85" stop-color="#0094B8"/>
<stop offset="0.97" stop-color="#00CEEA"/>
<stop offset="1" stop-color="#00DCF6"/>
</linearGradient>
<linearGradient id="paint12_linear_5_3369" x1="158.045" y1="21.55" x2="221.165" y2="84.67" gradientUnits="userSpaceOnUse">
<stop stop-color="#1C70EA"/>
<stop offset="0.25" stop-color="#2B93EC"/>
<stop offset="0.58" stop-color="#3DBCEF"/>
<stop offset="0.84" stop-color="#47D5F1"/>
<stop offset="1" stop-color="#4CDFF2"/>
</linearGradient>
<linearGradient id="paint13_linear_5_3369" x1="173.295" y1="41.01" x2="190.805" y2="58.51" gradientUnits="userSpaceOnUse">
<stop stop-color="#0096F3"/>
<stop offset="0.07" stop-color="#31AAF5"/>
<stop offset="0.19" stop-color="#79C8F8"/>
<stop offset="0.3" stop-color="#B2DFFB"/>
<stop offset="0.39" stop-color="#DCF0FD"/>
<stop offset="0.46" stop-color="#F5FBFE"/>
<stop offset="0.5" stop-color="white"/>
<stop offset="0.54" stop-color="#F7FDFE"/>
<stop offset="0.61" stop-color="#E3F8FD"/>
<stop offset="0.69" stop-color="#C2F1FC"/>
<stop offset="0.77" stop-color="#94E6FA"/>
<stop offset="0.87" stop-color="#5AD8F8"/>
<stop offset="0.97" stop-color="#13C8F5"/>
<stop offset="1" stop-color="#00C4F5"/>
</linearGradient>
<linearGradient id="paint14_linear_5_3369" x1="183.105" y1="31.2001" x2="200.615" y2="48.7" gradientUnits="userSpaceOnUse">
<stop stop-color="#0096F3"/>
<stop offset="0.07" stop-color="#31AAF5"/>
<stop offset="0.19" stop-color="#79C8F8"/>
<stop offset="0.3" stop-color="#B2DFFB"/>
<stop offset="0.39" stop-color="#DCF0FD"/>
<stop offset="0.46" stop-color="#F5FBFE"/>
<stop offset="0.5" stop-color="white"/>
<stop offset="0.54" stop-color="#F7FDFE"/>
<stop offset="0.61" stop-color="#E3F8FD"/>
<stop offset="0.69" stop-color="#C2F1FC"/>
<stop offset="0.77" stop-color="#94E6FA"/>
<stop offset="0.87" stop-color="#5AD8F8"/>
<stop offset="0.97" stop-color="#13C8F5"/>
<stop offset="1" stop-color="#00C4F5"/>
</linearGradient>
<linearGradient id="paint15_linear_5_3369" x1="194.435" y1="53.72" x2="214.415" y2="73.7" gradientUnits="userSpaceOnUse">
<stop stop-color="#00B6F5"/>
<stop offset="0.07" stop-color="#31C4F6"/>
<stop offset="0.19" stop-color="#79D8F9"/>
<stop offset="0.3" stop-color="#B2E9FC"/>
<stop offset="0.39" stop-color="#DCF5FD"/>
<stop offset="0.46" stop-color="#F5FCFE"/>
<stop offset="0.5" stop-color="white"/>
<stop offset="0.54" stop-color="#F7FEFE"/>
<stop offset="0.61" stop-color="#E3FBFE"/>
<stop offset="0.69" stop-color="#C2F6FC"/>
<stop offset="0.77" stop-color="#94F0FB"/>
<stop offset="0.87" stop-color="#5AE8F9"/>
<stop offset="0.97" stop-color="#13DEF6"/>
<stop offset="1" stop-color="#00DCF6"/>
</linearGradient>
<linearGradient id="paint16_linear_5_3369" x1="184.625" y1="63.53" x2="204.605" y2="83.51" gradientUnits="userSpaceOnUse">
<stop stop-color="#00B6F5"/>
<stop offset="0.07" stop-color="#31C4F6"/>
<stop offset="0.19" stop-color="#79D8F9"/>
<stop offset="0.3" stop-color="#B2E9FC"/>
<stop offset="0.39" stop-color="#DCF5FD"/>
<stop offset="0.46" stop-color="#F5FCFE"/>
<stop offset="0.5" stop-color="white"/>
<stop offset="0.54" stop-color="#F7FEFE"/>
<stop offset="0.61" stop-color="#E3FBFE"/>
<stop offset="0.69" stop-color="#C2F6FC"/>
<stop offset="0.77" stop-color="#94F0FB"/>
<stop offset="0.87" stop-color="#5AE8F9"/>
<stop offset="0.97" stop-color="#13DEF6"/>
<stop offset="1" stop-color="#00DCF6"/>
</linearGradient>
<linearGradient id="paint17_linear_5_3369" x1="514.915" y1="58.6399" x2="526.015" y2="43.2099" gradientUnits="userSpaceOnUse">
<stop stop-color="#1C70EA"/>
<stop offset="0.25" stop-color="#2B93EC"/>
<stop offset="0.58" stop-color="#3DBCEF"/>
<stop offset="0.84" stop-color="#47D5F1"/>
<stop offset="1" stop-color="#4CDFF2"/>
</linearGradient>
<linearGradient id="paint18_linear_5_3369" x1="904.19" y1="58.6399" x2="915.29" y2="43.2099" gradientUnits="userSpaceOnUse">
<stop stop-color="#1C70EA"/>
<stop offset="0.25" stop-color="#2B93EC"/>
<stop offset="0.58" stop-color="#3DBCEF"/>
<stop offset="0.84" stop-color="#47D5F1"/>
<stop offset="1" stop-color="#4CDFF2"/>
</linearGradient>
<linearGradient id="paint19_linear_5_3369" x1="27.045" y1="21.55" x2="90.165" y2="84.67" gradientUnits="userSpaceOnUse">
<stop stop-color="#1C70EA"/>
<stop offset="0.25" stop-color="#2B93EC"/>
<stop offset="0.58" stop-color="#3DBCEF"/>
<stop offset="0.84" stop-color="#47D5F1"/>
<stop offset="1" stop-color="#4CDFF2"/>
</linearGradient>
<linearGradient id="paint20_linear_5_3369" x1="42.2948" y1="41.01" x2="59.8048" y2="58.51" gradientUnits="userSpaceOnUse">
<stop stop-color="#0096F3"/>
<stop offset="0.07" stop-color="#31AAF5"/>
<stop offset="0.19" stop-color="#79C8F8"/>
<stop offset="0.3" stop-color="#B2DFFB"/>
<stop offset="0.39" stop-color="#DCF0FD"/>
<stop offset="0.46" stop-color="#F5FBFE"/>
<stop offset="0.5" stop-color="white"/>
<stop offset="0.54" stop-color="#F7FDFE"/>
<stop offset="0.61" stop-color="#E3F8FD"/>
<stop offset="0.69" stop-color="#C2F1FC"/>
<stop offset="0.77" stop-color="#94E6FA"/>
<stop offset="0.87" stop-color="#5AD8F8"/>
<stop offset="0.97" stop-color="#13C8F5"/>
<stop offset="1" stop-color="#00C4F5"/>
</linearGradient>
<linearGradient id="paint21_linear_5_3369" x1="52.1053" y1="31.2001" x2="69.6152" y2="48.7" gradientUnits="userSpaceOnUse">
<stop stop-color="#0096F3"/>
<stop offset="0.07" stop-color="#31AAF5"/>
<stop offset="0.19" stop-color="#79C8F8"/>
<stop offset="0.3" stop-color="#B2DFFB"/>
<stop offset="0.39" stop-color="#DCF0FD"/>
<stop offset="0.46" stop-color="#F5FBFE"/>
<stop offset="0.5" stop-color="white"/>
<stop offset="0.54" stop-color="#F7FDFE"/>
<stop offset="0.61" stop-color="#E3F8FD"/>
<stop offset="0.69" stop-color="#C2F1FC"/>
<stop offset="0.77" stop-color="#94E6FA"/>
<stop offset="0.87" stop-color="#5AD8F8"/>
<stop offset="0.97" stop-color="#13C8F5"/>
<stop offset="1" stop-color="#00C4F5"/>
</linearGradient>
<linearGradient id="paint22_linear_5_3369" x1="63.4352" y1="53.72" x2="83.4152" y2="73.7" gradientUnits="userSpaceOnUse">
<stop stop-color="#00B6F5"/>
<stop offset="0.07" stop-color="#31C4F6"/>
<stop offset="0.19" stop-color="#79D8F9"/>
<stop offset="0.3" stop-color="#B2E9FC"/>
<stop offset="0.39" stop-color="#DCF5FD"/>
<stop offset="0.46" stop-color="#F5FCFE"/>
<stop offset="0.5" stop-color="white"/>
<stop offset="0.54" stop-color="#F7FEFE"/>
<stop offset="0.61" stop-color="#E3FBFE"/>
<stop offset="0.69" stop-color="#C2F6FC"/>
<stop offset="0.77" stop-color="#94F0FB"/>
<stop offset="0.87" stop-color="#5AE8F9"/>
<stop offset="0.97" stop-color="#13DEF6"/>
<stop offset="1" stop-color="#00DCF6"/>
</linearGradient>
<linearGradient id="paint23_linear_5_3369" x1="53.6248" y1="63.53" x2="73.6048" y2="83.51" gradientUnits="userSpaceOnUse">
<stop stop-color="#00B6F5"/>
<stop offset="0.07" stop-color="#31C4F6"/>
<stop offset="0.19" stop-color="#79D8F9"/>
<stop offset="0.3" stop-color="#B2E9FC"/>
<stop offset="0.39" stop-color="#DCF5FD"/>
<stop offset="0.46" stop-color="#F5FCFE"/>
<stop offset="0.5" stop-color="white"/>
<stop offset="0.54" stop-color="#F7FEFE"/>
<stop offset="0.61" stop-color="#E3FBFE"/>
<stop offset="0.69" stop-color="#C2F6FC"/>
<stop offset="0.77" stop-color="#94F0FB"/>
<stop offset="0.87" stop-color="#5AE8F9"/>
<stop offset="0.97" stop-color="#13DEF6"/>
<stop offset="1" stop-color="#00DCF6"/>
</linearGradient>
</defs>
</svg>
