<svg width="376" height="75" viewBox="0 0 376 75" fill="none" xmlns="http://www.w3.org/2000/svg">
<path d="M78.395 32.97L57.715 2.79999C56.515 1.03999 54.525 0 52.405 0C51.345 0 50.315 0.25999 49.405 0.73999C48.495 1.21999 47.705 1.91999 47.095 2.79999L39.875 13.33L35.205 6.51999L32.655 2.79999C31.455 1.04999 29.465 0 27.345 0C25.225 0 23.225 1.04999 22.025 2.79999L1.35499 32.97C1.10499 33.34 0.885 33.72 0.705 34.12C-0.235 36.17 -0.235 38.56 0.705 40.61C0.885 41.01 1.10499 41.39 1.35499 41.76L22.025 71.93C23.225 73.69 25.215 74.73 27.345 74.73C28.405 74.73 29.435 74.47 30.345 73.99C31.255 73.51 32.045 72.81 32.655 71.93L39.875 61.39L42.185 64.77L47.095 71.93C48.295 73.69 50.285 74.73 52.405 74.73C53.475 74.73 54.495 74.47 55.415 73.99C56.325 73.51 57.125 72.81 57.725 71.93L78.395 41.76C80.195 39.13 80.195 35.59 78.395 32.96V32.97ZM27.335 6.53L35.935 19.08L27.425 31.5C26.295 33.15 24.425 34.13 22.425 34.13H8.425L27.335 6.53ZM27.335 68.21L8.425 40.62H22.425C24.425 40.62 26.295 41.61 27.425 43.25L29.665 46.51L35.935 55.66L27.335 68.21ZM39.875 49.91L31.265 37.37L39.865 24.82L48.465 37.37L39.875 49.91ZM52.405 68.21L43.815 55.66L52.315 43.25C53.445 41.6 55.315 40.62 57.315 40.62H71.315L52.405 68.21ZM57.305 34.12C55.315 34.12 53.445 33.13 52.315 31.49L44.375 19.91L43.805 19.07L52.405 6.51999L71.315 34.12H57.305Z" fill="url(#paint0_linear_5_3368)"/>
<path d="M39.8648 13.33L35.9348 19.07L27.3348 6.51999L8.42484 34.12H0.694824C0.874824 33.72 1.09485 33.34 1.34485 32.97L22.0148 2.79999C23.2148 1.04999 25.2048 0 27.3348 0C29.4648 0 31.4448 1.04999 32.6448 2.79999L35.1948 6.51999L39.8648 13.33Z" fill="url(#paint1_linear_5_3368)"/>
<path d="M39.8652 24.8201L43.8052 19.0701L52.3152 31.4901L48.4652 37.3701L39.8652 24.8201Z" fill="url(#paint2_linear_5_3368)"/>
<path d="M39.8652 61.4L43.8052 55.66L52.3952 68.21L71.3052 40.61H79.0352C78.8552 41.01 78.6352 41.39 78.3852 41.76L57.7152 71.93C56.5152 73.68 54.5252 74.73 52.3952 74.73C50.2652 74.73 48.2852 73.68 47.0852 71.93L44.5352 68.21L39.8652 61.4Z" fill="url(#paint3_linear_5_3368)"/>
<path d="M39.8648 49.91L35.9348 55.66L27.4248 43.24L31.2648 37.36L39.8648 49.91Z" fill="url(#paint4_linear_5_3368)"/>
<path d="M102.605 11.2L113.625 52.24L125.155 11.28H133.215L144.375 52.24L155.535 11.28H164.185L149.395 63.04H139.415L128.845 24.96L118.495 63.04H108.515L93.7251 11.28L102.595 11.21L102.605 11.2Z" fill="#002B5E"/>
<path d="M175.945 25.1699V63.0299H167.955V25.1699H175.945Z" fill="#002B5E"/>
<path d="M175.945 11.2V21.32H167.955V11.2H175.945Z" fill="#002B5E"/>
<path d="M191.155 55.3699C192.855 56.6299 195.065 57.2599 197.775 57.2599C200.195 57.2599 202.145 56.7999 203.655 55.8899C205.155 54.9799 205.915 53.7599 205.915 52.2299C205.915 50.9499 205.565 49.9899 204.875 49.3499C204.185 48.7099 203.265 48.2499 202.105 47.9799C200.945 47.7099 199.155 47.4299 196.745 47.1299C193.445 46.7399 190.715 46.2099 188.575 45.5399C186.435 44.8699 184.705 43.8099 183.395 42.3599C182.085 40.9099 181.435 38.9499 181.435 36.4799C181.435 34.1599 182.085 32.1099 183.395 30.3099C184.705 28.5099 186.495 27.1199 188.795 26.1299C191.085 25.1399 193.685 24.6499 196.595 24.6499C201.375 24.6499 205.255 25.7099 208.245 27.8299C211.235 29.9499 212.845 32.9299 213.085 36.7799H205.325C205.125 35.0499 204.265 33.6399 202.735 32.5299C201.205 31.4199 199.285 30.8699 196.965 30.8699C194.645 30.8699 192.775 31.3099 191.345 32.1999C189.915 33.0899 189.205 34.2899 189.205 35.8199C189.205 36.9499 189.565 37.7999 190.275 38.3699C190.985 38.9399 191.885 39.3299 192.975 39.5499C194.055 39.7699 195.805 40.0299 198.225 40.3299C201.475 40.6799 204.215 41.1999 206.435 41.9199C208.655 42.6399 210.425 43.7699 211.755 45.3199C213.085 46.8699 213.755 48.9799 213.755 51.6399C213.755 54.0099 213.065 56.0899 211.685 57.8899C210.305 59.6899 208.405 61.0699 205.995 62.0299C203.575 62.9899 200.865 63.4699 197.865 63.4699C192.785 63.4699 188.685 62.3199 185.555 60.0299C182.425 57.7399 180.815 54.5699 180.715 50.5299H188.405C188.555 52.4999 189.475 54.1199 191.175 55.3699H191.155Z" fill="#002B5E"/>
<path d="M225.565 27.13C228.345 25.53 231.545 24.73 235.135 24.73C238.725 24.73 241.995 25.47 244.785 26.95C247.565 28.43 249.765 30.52 251.365 33.23C252.965 35.94 253.795 39.12 253.845 42.77C253.845 43.76 253.775 44.77 253.625 45.8H225.085V46.24C225.285 49.54 226.315 52.16 228.195 54.08C230.065 56 232.555 56.96 235.665 56.96C238.125 56.96 240.195 56.38 241.875 55.22C243.555 54.06 244.655 52.42 245.205 50.3H253.195C252.505 54.14 250.645 57.3 247.615 59.76C244.585 62.22 240.795 63.46 236.265 63.46C232.325 63.46 228.885 62.66 225.955 61.06C223.025 59.46 220.755 57.2 219.155 54.29C217.555 51.38 216.755 48.01 216.755 44.16C216.755 40.31 217.535 36.85 219.085 33.92C220.635 30.99 222.805 28.72 225.595 27.12L225.565 27.13ZM242.425 33.49C240.575 31.94 238.245 31.16 235.435 31.16C232.825 31.16 230.565 31.96 228.665 33.56C226.765 35.16 225.675 37.29 225.375 39.96H245.705C245.355 37.2 244.265 35.04 242.415 33.49H242.425Z" fill="#002B5E"/>
<path d="M302.485 54.26C300.885 51.33 300.085 47.94 300.085 44.09C300.085 40.24 300.885 36.93 302.485 34C304.085 31.07 306.355 28.79 309.285 27.16C312.215 25.53 315.585 24.72 319.375 24.72C323.165 24.72 326.535 25.53 329.465 27.16C332.395 28.79 334.665 31.07 336.265 34C337.865 36.93 338.665 40.3 338.665 44.09C338.665 47.88 337.865 51.32 336.265 54.26C334.665 57.19 332.395 59.46 329.465 61.06C326.535 62.66 323.165 63.46 319.375 63.46C315.585 63.46 312.215 62.66 309.285 61.06C306.355 59.46 304.085 57.19 302.485 54.26ZM330.545 44.1C330.545 40.4 329.525 37.38 327.475 35.04C325.425 32.7 322.735 31.53 319.375 31.53C316.015 31.53 313.335 32.7 311.315 35.04C309.295 37.38 308.285 40.4 308.285 44.1C308.285 47.8 309.295 50.82 311.315 53.16C313.335 55.5 316.025 56.67 319.375 56.67C322.725 56.67 325.425 55.5 327.475 53.16C329.515 50.82 330.545 47.8 330.545 44.1Z" fill="#002B5E"/>
<path d="M294.595 33.75C293.065 30.84 290.945 28.61 288.235 27.06C285.525 25.51 282.445 24.73 278.995 24.73C276.385 24.73 274.055 25.26 271.995 26.3C270.775 26.92 269.985 28.15 269.985 29.52V34.7C271.965 32.6 274.525 31.54 277.665 31.54C280.965 31.54 283.645 32.71 285.685 35.05C287.735 37.39 288.755 40.41 288.755 44.11C288.755 47.81 287.735 50.9 285.685 53.24C283.635 55.58 280.965 56.75 277.665 56.75C274.365 56.75 271.705 55.57 269.675 53.2C267.655 50.83 266.645 47.78 266.645 44.03C266.645 43.48 266.675 42.95 266.715 42.43V11.27H258.725V63.03H266.635V57.56C267.915 59.38 269.595 60.83 271.665 61.89C273.735 62.95 276.175 63.48 278.985 63.48C282.435 63.48 285.515 62.67 288.225 61.04C290.935 59.41 293.055 57.13 294.585 54.2C296.115 51.27 296.875 47.9 296.875 44.11C296.875 40.12 296.115 36.67 294.585 33.76L294.595 33.75Z" fill="#002B5E"/>
<path d="M347.915 25.1699H338.605L351.985 43.6499L337.785 63.0299H346.435L356.495 49.2699L366.475 63.0299H375.795L347.915 25.1699Z" fill="#002B5E"/>
<path d="M363.655 40.7299L374.985 25.1699H366.255L360.715 32.8399C359.865 34.0099 359.875 35.5899 360.735 36.7599L363.655 40.7299Z" fill="url(#paint5_linear_5_3368)"/>
<defs>
<linearGradient id="paint0_linear_5_3368" x1="4.045" y1="1.55" x2="67.165" y2="64.67" gradientUnits="userSpaceOnUse">
<stop stop-color="#1C70EA"/>
<stop offset="0.25" stop-color="#2B93EC"/>
<stop offset="0.58" stop-color="#3DBCEF"/>
<stop offset="0.84" stop-color="#47D5F1"/>
<stop offset="1" stop-color="#4CDFF2"/>
</linearGradient>
<linearGradient id="paint1_linear_5_3368" x1="19.2948" y1="21.01" x2="36.8048" y2="38.51" gradientUnits="userSpaceOnUse">
<stop stop-color="#0096F3"/>
<stop offset="0.07" stop-color="#31AAF5"/>
<stop offset="0.19" stop-color="#79C8F8"/>
<stop offset="0.3" stop-color="#B2DFFB"/>
<stop offset="0.39" stop-color="#DCF0FD"/>
<stop offset="0.46" stop-color="#F5FBFE"/>
<stop offset="0.5" stop-color="white"/>
<stop offset="0.54" stop-color="#F7FDFE"/>
<stop offset="0.61" stop-color="#E3F8FD"/>
<stop offset="0.69" stop-color="#C2F1FC"/>
<stop offset="0.77" stop-color="#94E6FA"/>
<stop offset="0.87" stop-color="#5AD8F8"/>
<stop offset="0.97" stop-color="#13C8F5"/>
<stop offset="1" stop-color="#00C4F5"/>
</linearGradient>
<linearGradient id="paint2_linear_5_3368" x1="29.1053" y1="11.2001" x2="46.6152" y2="28.7" gradientUnits="userSpaceOnUse">
<stop stop-color="#0096F3"/>
<stop offset="0.07" stop-color="#31AAF5"/>
<stop offset="0.19" stop-color="#79C8F8"/>
<stop offset="0.3" stop-color="#B2DFFB"/>
<stop offset="0.39" stop-color="#DCF0FD"/>
<stop offset="0.46" stop-color="#F5FBFE"/>
<stop offset="0.5" stop-color="white"/>
<stop offset="0.54" stop-color="#F7FDFE"/>
<stop offset="0.61" stop-color="#E3F8FD"/>
<stop offset="0.69" stop-color="#C2F1FC"/>
<stop offset="0.77" stop-color="#94E6FA"/>
<stop offset="0.87" stop-color="#5AD8F8"/>
<stop offset="0.97" stop-color="#13C8F5"/>
<stop offset="1" stop-color="#00C4F5"/>
</linearGradient>
<linearGradient id="paint3_linear_5_3368" x1="40.4352" y1="33.72" x2="60.4152" y2="53.7" gradientUnits="userSpaceOnUse">
<stop stop-color="#00B6F5"/>
<stop offset="0.07" stop-color="#31C4F6"/>
<stop offset="0.19" stop-color="#79D8F9"/>
<stop offset="0.3" stop-color="#B2E9FC"/>
<stop offset="0.39" stop-color="#DCF5FD"/>
<stop offset="0.46" stop-color="#F5FCFE"/>
<stop offset="0.5" stop-color="white"/>
<stop offset="0.54" stop-color="#F7FEFE"/>
<stop offset="0.61" stop-color="#E3FBFE"/>
<stop offset="0.69" stop-color="#C2F6FC"/>
<stop offset="0.77" stop-color="#94F0FB"/>
<stop offset="0.87" stop-color="#5AE8F9"/>
<stop offset="0.97" stop-color="#13DEF6"/>
<stop offset="1" stop-color="#00DCF6"/>
</linearGradient>
<linearGradient id="paint4_linear_5_3368" x1="30.6248" y1="43.53" x2="50.6048" y2="63.51" gradientUnits="userSpaceOnUse">
<stop stop-color="#00B6F5"/>
<stop offset="0.07" stop-color="#31C4F6"/>
<stop offset="0.19" stop-color="#79D8F9"/>
<stop offset="0.3" stop-color="#B2E9FC"/>
<stop offset="0.39" stop-color="#DCF5FD"/>
<stop offset="0.46" stop-color="#F5FCFE"/>
<stop offset="0.5" stop-color="white"/>
<stop offset="0.54" stop-color="#F7FEFE"/>
<stop offset="0.61" stop-color="#E3FBFE"/>
<stop offset="0.69" stop-color="#C2F6FC"/>
<stop offset="0.77" stop-color="#94F0FB"/>
<stop offset="0.87" stop-color="#5AE8F9"/>
<stop offset="0.97" stop-color="#13DEF6"/>
<stop offset="1" stop-color="#00DCF6"/>
</linearGradient>
<linearGradient id="paint5_linear_5_3368" x1="360.915" y1="38.6399" x2="372.015" y2="23.2099" gradientUnits="userSpaceOnUse">
<stop stop-color="#1C70EA"/>
<stop offset="0.25" stop-color="#2B93EC"/>
<stop offset="0.58" stop-color="#3DBCEF"/>
<stop offset="0.84" stop-color="#47D5F1"/>
<stop offset="1" stop-color="#4CDFF2"/>
</linearGradient>
</defs>
</svg>
